####
#
# OBJ File Generated by Meshlab
#
####
# Object socket_hex_collision_2.obj
#
# Vertices: 10
# Faces: 16
#
####
vn -0.577350 -0.577350 -0.577350
v -0.079994 -0.099990 -0.050000
vn 0.577350 -0.577350 -0.577350
v -0.015983 -0.099990 -0.050000
vn -0.577350 -0.577350 0.577350
v -0.079994 -0.099990 0.000000
vn -0.577350 0.577350 -0.577350
v -0.079994 0.000006 -0.050000
vn 0.731360 0.196017 -0.653215
v -0.015983 -0.027719 -0.050000
vn 0.577350 -0.577350 0.577350
v -0.015983 -0.099990 0.000000
vn -0.577350 0.577350 0.577350
v -0.079994 0.000006 0.000000
vn 0.396156 0.686263 -0.610004
v -0.031995 0.000006 -0.050000
vn 0.731360 0.196017 0.653215
v -0.015983 -0.027719 0.000000
vn 0.396156 0.686263 0.610004
v -0.031995 0.000006 0.000000
# 10 vertices, 0 vertices normals

f 1//1 2//2 6//6
f 1//1 6//6 3//3
f 1//1 3//3 7//7
f 1//1 7//7 4//4
f 1//1 4//4 8//8
f 1//1 8//8 5//5
f 1//1 5//5 2//2
f 2//2 5//5 9//9
f 2//2 9//9 6//6
f 3//3 6//6 9//9
f 3//3 9//9 10//10
f 3//3 10//10 7//7
f 4//4 7//7 10//10
f 4//4 10//10 8//8
f 5//5 8//8 10//10
f 5//5 10//10 9//9
# 16 faces, 0 coords texture

# End of File
