v -0.08000000 0.10000000 0.05000000
v 0.08000000 0.10000000 0.05000000
v -0.08000000 0.10000000 0.00000000
v 0.08000000 0.10000000 0.00000000
v -0.08000000 -0.10000000 0.05000000
v -0.08000000 -0.10000000 0.00000000
v 0.08000000 -0.10000000 0.05000000
v 0.08000000 -0.10000000 0.00000000
v 0.03200000 0.00000000 0.05000000
v 0.01600000 -0.02771300 0.05000000
v -0.01600000 -0.02771300 0.05000000
v -0.03200000 0.00000000 0.05000000
v -0.01600000 0.02771300 0.05000000
v 0.01600000 0.02771300 0.05000000
v -0.03200000 0.00000000 0.00000000
v -0.01600000 -0.02771300 0.00000000
v 0.01600000 -0.02771300 0.00000000
v 0.03200000 0.00000000 0.00000000
v 0.01600000 0.02771300 0.00000000
v -0.01600000 0.02771300 0.00000000
vn -1.57079600 1.57079600 1.57079700
vn 1.57079600 1.57079600 1.57079700
vn -1.57079600 1.57079600 -1.57079700
vn 1.57079600 1.57079600 -1.57079700
vn -1.57079600 -1.57079600 1.57079700
vn -1.57079600 -1.57079600 -1.57079700
vn 1.57079600 -1.57079600 1.57079700
vn 1.57079600 -1.57079600 -1.57079700
vn -2.72069800 -0.00000000 4.18879000
vn -1.36034900 2.35619500 4.18879000
vn 1.36034900 2.35619500 4.18879000
vn 2.72069900 0.00000100 4.18879000
vn 1.36035000 -2.35619400 4.18879000
vn -1.36034900 -2.35619500 4.18879000
vn 2.72069900 0.00000100 -4.18879000
vn 1.36034900 2.35619500 -4.18879000
vn -1.36035000 2.35619500 -4.18879000
vn -2.72069900 -0.00000000 -4.18879000
vn -1.36034900 -2.35619400 -4.18879000
vn 1.36035000 -2.35619400 -4.18879000
f 1//1 2//2 3//3
f 3//3 2//2 4//4
f 5//5 1//1 6//6
f 6//6 1//1 3//3
f 7//7 5//5 8//8
f 8//8 5//5 6//6
f 2//2 7//7 4//4
f 4//4 7//7 8//8
f 2//2 9//9 7//7
f 7//7 9//9 10//10
f 7//7 10//10 5//5
f 10//10 11//11 5//5
f 5//5 11//11 12//12
f 5//5 12//12 1//1
f 1//1 12//12 13//13
f 1//1 13//13 2//2
f 2//2 13//13 14//14
f 2//2 14//14 9//9
f 3//3 15//15 6//6
f 6//6 15//15 16//16
f 6//6 16//16 8//8
f 16//16 17//17 8//8
f 8//8 17//17 18//18
f 8//8 18//18 4//4
f 4//4 18//18 19//19
f 4//4 19//19 3//3
f 3//3 19//19 20//20
f 3//3 20//20 15//15
f 18//18 17//17 9//9
f 9//9 17//17 10//10
f 17//17 16//16 10//10
f 10//10 16//16 11//11
f 16//16 15//15 11//11
f 11//11 15//15 12//12
f 15//15 20//20 12//12
f 12//12 20//20 13//13
f 20//20 19//19 13//13
f 13//13 19//19 14//14
f 19//19 18//18 14//14
f 14//14 18//18 9//9