####
#
# OBJ File Generated by Meshlab
#
####
# Object socket_hex_collision_5.obj
#
# Vertices: 10
# Faces: 16
#
####
vn -0.577350 -0.577350 -0.577350
v 0.015997 -0.099990 -0.050000
vn -0.577350 -0.577350 0.577350
v 0.015997 -0.099990 0.000000
vn -0.731370 0.195833 -0.653259
v 0.015997 -0.027719 -0.050000
vn 0.577350 -0.577350 -0.577350
v 0.080000 -0.099990 -0.050000
vn 0.577350 -0.577350 0.577350
v 0.080000 -0.099990 0.000000
vn -0.731370 0.195833 0.653259
v 0.015997 -0.027719 0.000000
vn -0.396333 0.686191 -0.609969
v 0.031992 0.000006 -0.050000
vn 0.577350 0.577350 -0.577350
v 0.080000 0.000006 -0.050000
vn 0.577350 0.577350 0.577350
v 0.080000 0.000006 0.000000
vn -0.396333 0.686191 0.609969
v 0.031992 0.000006 0.000000
# 10 vertices, 0 vertices normals

f 1//1 2//2 6//6
f 1//1 6//6 3//3
f 1//1 3//3 7//7
f 1//1 7//7 8//8
f 1//1 8//8 4//4
f 1//1 4//4 5//5
f 1//1 5//5 2//2
f 2//2 5//5 9//9
f 2//2 9//9 10//10
f 2//2 10//10 6//6
f 3//3 6//6 10//10
f 3//3 10//10 7//7
f 4//4 8//8 9//9
f 4//4 9//9 5//5
f 7//7 10//10 9//9
f 7//7 9//9 8//8
# 16 faces, 0 coords texture

# End of File
