####
#
# OBJ File Generated by Meshlab
#
####
# Object socket_hex_collision_1.obj
#
# Vertices: 9
# Faces: 14
#
####
vn 0.577350 0.577350 0.577350
v 0.015997 0.100000 0.000000
vn -0.577350 0.577350 0.577350
v -0.015977 0.100000 0.000000
vn 0.577354 -0.577356 0.577340
v 0.015997 0.027713 0.000000
vn 0.577350 0.577350 -0.577350
v 0.015997 0.100000 -0.050000
vn -0.577350 0.577350 -0.577350
v -0.015977 0.100000 -0.050000
vn -0.577350 -0.577350 0.577350
v -0.015977 0.027713 0.000000
vn 0.577474 -0.577166 -0.577411
v 0.015997 0.027720 -0.050000
vn 0.000126 -0.707137 -0.707077
v 0.000010 0.027713 -0.050000
vn -0.577350 -0.577350 -0.577350
v -0.015977 0.027713 -0.050000
# 9 vertices, 0 vertices normals

f 1//1 2//2 6//6
f 1//1 6//6 3//3
f 1//1 3//3 7//7
f 1//1 7//7 4//4
f 1//1 4//4 5//5
f 1//1 5//5 2//2
f 2//2 5//5 9//9
f 2//2 9//9 6//6
f 3//3 6//6 9//9
f 3//3 9//9 8//8
f 3//3 8//8 7//7
f 4//4 7//7 8//8
f 4//4 8//8 9//9
f 4//4 9//9 5//5
# 14 faces, 0 coords texture

# End of File
