####
#
# OBJ File Generated by Meshlab
#
####
# Object socket_hex_collision_4.obj
#
# Vertices: 10
# Faces: 16
#
####
vn -0.731366 -0.196009 0.653210
v 0.015997 0.027713 0.000000
vn -0.396201 -0.686238 -0.610002
v 0.031992 0.000016 -0.050000
vn -0.396168 -0.686258 0.610001
v 0.031992 0.000016 0.000000
vn -0.577350 0.577350 0.577350
v 0.015997 0.100000 0.000000
vn -0.731354 -0.195918 -0.653251
v 0.015997 0.027723 -0.050000
vn 0.577350 -0.577350 -0.577350
v 0.080000 0.000016 -0.050000
vn 0.577350 -0.577350 0.577350
v 0.080000 0.000016 0.000000
vn 0.577350 0.577350 0.577350
v 0.080000 0.100000 0.000000
vn -0.577350 0.577350 -0.577350
v 0.015997 0.100000 -0.050000
vn 0.577350 0.577350 -0.577350
v 0.080000 0.100000 -0.050000
# 10 vertices, 0 vertices normals

f 1//1 2//2 3//3
f 1//1 3//3 7//7
f 1//1 7//7 8//8
f 1//1 8//8 4//4
f 1//1 4//4 9//9
f 1//1 9//9 5//5
f 1//1 5//5 2//2
f 2//2 6//6 7//7
f 2//2 7//7 3//3
f 2//2 5//5 9//9
f 2//2 9//9 10//10
f 2//2 10//10 6//6
f 4//4 8//8 10//10
f 4//4 10//10 9//9
f 6//6 10//10 8//8
f 6//6 8//8 7//7
# 16 faces, 0 coords texture

# End of File
