# https://github.com/mikedh/trimesh
v 0.01394823 0.02778865 0.01179013
v 0.01484411 0.02777233 0.05224794
v 0.01484411 0.02778321 0.01179013
v -0.01398556 0.02778865 0.01179013
v 0.01484411 0.02757649 0.05314633
v 0.01574620 0.02759825 0.05224794
v -0.01484411 0.02777233 0.05224794
v 0.01570887 0.02761456 0.01179013
v -0.01484411 0.02778321 0.01179013
v 0.01484411 0.02718479 0.05378804
v 0.01550979 0.02712495 0.05372387
v 0.01578353 0.02731535 0.05318483
v -0.01484411 0.02757649 0.05314633
v 0.01629368 0.02714127 0.05290676
v 0.01633723 0.02721199 0.05224794
v 0.01574620 0.02760369 0.01179013
v -0.01488766 0.02777777 0.01179013
v -0.01574620 0.02759825 0.05224794
v 0.01394823 0.02673869 0.05423724
v 0.01394823 0.02628715 0.05468644
v 0.01484411 0.02670061 0.05423724
v -0.01484411 0.02718479 0.05378804
v 0.01484411 0.02624907 0.05463510
v 0.01536670 0.02617291 0.05455810
v 0.01611326 0.02689646 0.05350569
v -0.01578353 0.02731535 0.05318483
v -0.01550979 0.02712495 0.05372387
v 0.01648654 0.02657548 0.05318483
v 0.01895641 0.02260412 0.05284259
v 0.01801077 0.02432323 0.05273564
v 0.01674161 0.02654828 0.05224794
v 0.01634345 0.02721199 0.01179013
v -0.01574620 0.02760369 0.01179013
v -0.01633723 0.02721199 0.05224794
v -0.01629368 0.02714127 0.05290676
v -0.01394823 0.02673869 0.05423724
v 0.01394823 0.02573769 0.05513992
v -0.01394823 0.02628715 0.05468644
v -0.01484411 0.02670061 0.05423724
v 0.01449571 0.02525895 0.05543083
v 0.01509918 0.02498150 0.05530676
v 0.01552845 0.02564521 0.05469928
v 0.01631234 0.02629803 0.05369820
v 0.01708379 0.02517735 0.05358270
v -0.01611326 0.02689646 0.05350569
v -0.01536670 0.02617291 0.05455810
v -0.01484411 0.02624907 0.05463510
v 0.01880710 0.02233755 0.05344152
v 0.02257100 0.01632611 0.05286826
v 0.02162536 0.01804522 0.05276558
v 0.02790269 0.00720829 0.05270997
v 0.01731398 0.02556904 0.01179013
v 0.01674784 0.02654828 0.01179013
v 0.02596785 0.01057035 0.05224794
v 0.02300028 0.01572224 0.01179013
v -0.01634345 0.02721199 0.01179013
v -0.01674161 0.02654828 0.05224794
v -0.01801077 0.02432323 0.05273564
v -0.01895641 0.02260412 0.05284259
v -0.01648654 0.02657548 0.05318483
v 0.01394823 0.02529159 0.05544366
v -0.01394823 0.02573769 0.05513992
v 0.01481922 0.02470949 0.05545222
v 0.01534181 0.02438307 0.05542227
v 0.01394823 0.02474757 0.05549500
v 0.01573998 0.02474213 0.05495168
v 0.01802321 0.01984049 0.05541371
v 0.01649898 0.02384993 0.05475917
v 0.01598261 0.02564521 0.05430997
v 0.01695314 0.02384993 0.05436986
v 0.01755661 0.02379553 0.05387361
v 0.01898129 0.02173913 0.05366826
v 0.01802943 0.02345824 0.05362976
v 0.02069838 0.01889933 0.05359981
v 0.01975274 0.02061844 0.05352708
v -0.01708379 0.02517735 0.05358270
v -0.01631234 0.02629803 0.05369820
v -0.01552845 0.02564521 0.05469928
v -0.01509918 0.02498150 0.05530676
v -0.01449571 0.02525895 0.05543083
v 0.02964466 0.00350350 0.05351425
v 0.02869902 0.00522261 0.05342441
v 0.02884833 0.00548374 0.05282548
v 0.03151728 0.00092484 0.05274419
v 0.03152351 0.00094116 0.05224794
v 0.03081427 0.00217065 0.05224794
v 0.02661487 0.00944967 0.05224794
v 0.02662109 0.00944967 0.01179013
v -0.01674784 0.02654828 0.01179013
v -0.01731398 0.02556904 0.01179013
v -0.02296917 0.01577664 0.01179013
v -0.02596785 0.01057035 0.05224794
v -0.02790269 0.00720829 0.05270997
v -0.02162536 0.01804522 0.05276558
v -0.01880710 0.02233755 0.05344152
v -0.02257100 0.01632611 0.05286826
v -0.01394823 0.02529159 0.05544366
v 0.01484411 0.02384993 0.05549072
v 0.02471114 0.00759999 0.05545222
v 0.01895019 0.01809962 0.05542655
v 0.01574620 0.02204922 0.05549500
v -0.01394823 0.02474757 0.05549500
v 0.02523996 0.00727358 0.05542227
v 0.02430676 0.00901445 0.05540516
v 0.02068594 0.01528702 0.05539660
v 0.01755661 0.02199482 0.05477200
v 0.01842137 0.02200026 0.05402334
v 0.01992694 0.01821930 0.05460944
v 0.02869902 0.00342190 0.05441264
v 0.02981886 0.00290508 0.05370248
v 0.02431298 0.01262131 0.05360837
v 0.03059031 0.00178439 0.05358697
v -0.01975274 0.02061844 0.05352708
v -0.02069838 0.01889933 0.05359981
v -0.01802943 0.02345824 0.05362976
v -0.01598261 0.02564521 0.05430997
v -0.01898129 0.02173913 0.05366826
v -0.01755661 0.02379553 0.05387361
v -0.01695314 0.02384993 0.05436986
v -0.01573998 0.02474213 0.05495168
v -0.01534181 0.02438307 0.05542227
v -0.01649898 0.02384993 0.05475917
v -0.01802321 0.01984049 0.05541371
v -0.01481922 0.02470949 0.05545222
v 0.03136175 0.00064195 0.05334312
v 0.03161683 0.00038082 0.05308644
v 0.03177236 0.00044610 0.05224794
v 0.03177858 0.00044610 0.01179013
v 0.03153595 0.00091940 0.01179013
v 0.03126843 0.00139270 0.01179013
v 0.03027302 0.00312269 0.01179013
v -0.02662109 0.00944967 0.01179013
v -0.02661487 0.00944967 0.05224794
v -0.03081427 0.00217065 0.05224794
v -0.03152351 0.00094116 0.05224794
v -0.03151728 0.00092484 0.05274419
v -0.02869902 0.00522261 0.05342441
v -0.02964466 0.00350350 0.05351425
v -0.02884833 0.00548374 0.05282548
v 0.02834440 0.00044610 0.05549072
v 0.02884211 0.00099012 0.05542655
v 0.01934835 0.01574944 0.05549500
v -0.01484411 0.02384993 0.05549072
v -0.01574620 0.02204922 0.05549500
v 0.02791513 0.00273099 0.05540944
v 0.02981886 0.00110437 0.05460088
v 0.02277009 0.01304565 0.05473350
v 0.03076450 0.00118597 0.05374098
v 0.03151728 0.00003808 0.05361692
v -0.03059031 0.00178439 0.05358697
v -0.02431298 0.01262131 0.05360837
v -0.02981886 0.00290508 0.05370248
v -0.01842137 0.02200026 0.05402334
v -0.01755661 0.02199482 0.05477200
v -0.02869902 0.00342190 0.05441264
v -0.01992694 0.01821930 0.05460944
v -0.01895019 0.01809962 0.05542655
v -0.02430676 0.00901445 0.05540516
v -0.02068594 0.01528702 0.05539660
v -0.02523996 0.00727358 0.05542227
v -0.02471114 0.00759999 0.05545222
v 0.03161683 -0.00038082 0.05308644
v 0.03177236 -0.00044610 0.05224794
v 0.03177858 -0.00044610 0.01179013
v -0.03126843 0.00139270 0.01179013
v -0.03152351 0.00094116 0.01179013
v -0.03177858 0.00044610 0.01179013
v -0.03177236 0.00044610 0.05224794
v -0.03161683 0.00038082 0.05308644
v -0.03136175 0.00064195 0.05334312
v 0.02654644 0.00314989 0.05549500
v 0.02744853 0.00134918 0.05549500
v 0.02834440 -0.00044610 0.05549072
v 0.02892299 0.00044610 0.05544366
v 0.02937092 0.00044610 0.05520409
v 0.02999306 0.00044610 0.05475489
v -0.02834440 0.00044610 0.05549072
v -0.01934835 0.01574944 0.05549500
v 0.02924650 0.00134373 0.05495596
v 0.03105691 0.00038082 0.05386077
v 0.03151728 -0.00003808 0.05361692
v -0.03151728 0.00003808 0.05361692
v -0.03076450 0.00118597 0.05374098
v -0.02981886 0.00110437 0.05460088
v -0.02277009 0.01304565 0.05473350
v -0.02884211 0.00099012 0.05542655
v -0.02791513 0.00273099 0.05540944
v 0.03136175 -0.00064195 0.05334312
v 0.03151728 -0.00092484 0.05274419
v 0.03152351 -0.00094116 0.05224794
v 0.03152351 -0.00094116 0.01179013
v -0.03177858 -0.00044610 0.01179013
v -0.03177236 -0.00044610 0.05224794
v -0.03161683 -0.00038082 0.05308644
v 0.02744853 -0.00134918 0.05549500
v 0.02471114 -0.00759999 0.05545222
v 0.02884211 -0.00099012 0.05542655
v 0.02892299 -0.00044610 0.05544366
v 0.02654644 -0.00314989 0.05549500
v 0.01934835 -0.01574944 0.05549500
v 0.01574620 -0.02204922 0.05549500
v 0.01484411 -0.02384993 0.05549072
v 0.02937092 -0.00044610 0.05520409
v 0.02999306 -0.00044610 0.05475489
v -0.02892299 0.00044610 0.05544366
v -0.02834440 -0.00044610 0.05549072
v -0.02744853 0.00134918 0.05549500
v -0.02654644 0.00314989 0.05549500
v 0.03105691 -0.00038082 0.05386077
v 0.03076450 -0.00118597 0.05374098
v 0.03059031 -0.00178439 0.05358697
v -0.03105691 0.00038082 0.05386077
v -0.03151728 -0.00003808 0.05361692
v -0.02999306 0.00044610 0.05475489
v -0.02924650 0.00134373 0.05495596
v -0.02937092 0.00044610 0.05520409
v 0.02964466 -0.00350350 0.05351425
v 0.02869902 -0.00522261 0.05342441
v 0.02884833 -0.00548374 0.05282548
v 0.02257100 -0.01632611 0.05286826
v 0.02162536 -0.01804522 0.05276558
v 0.02790269 -0.00720829 0.05270997
v 0.03126843 -0.00139270 0.01179013
v 0.03081427 -0.00217065 0.05224794
v 0.02662109 -0.00944967 0.01179013
v -0.03153595 -0.00091940 0.01179013
v -0.03152351 -0.00094116 0.05224794
v -0.03151728 -0.00092484 0.05274419
v -0.03136175 -0.00064195 0.05334312
v 0.01481922 -0.02470949 0.05545222
v 0.02523996 -0.00727358 0.05542227
v 0.02791513 -0.00273099 0.05540944
v 0.01895019 -0.01809962 0.05542655
v 0.01394823 -0.02474757 0.05549500
v 0.02924650 -0.00134373 0.05495596
v 0.02981886 -0.00110437 0.05460088
v -0.02892299 -0.00044610 0.05544366
v -0.02654644 -0.00314989 0.05549500
v -0.02744853 -0.00134918 0.05549500
v -0.02884211 -0.00099012 0.05542655
v -0.02471114 -0.00759999 0.05545222
v -0.01484411 -0.02384993 0.05549072
v -0.01574620 -0.02204922 0.05549500
v -0.01934835 -0.01574944 0.05549500
v 0.02981886 -0.00290508 0.05370248
v 0.02431298 -0.01262131 0.05360837
v 0.02069838 -0.01889933 0.05359981
v -0.03059031 -0.00178439 0.05358697
v -0.03076450 -0.00118597 0.05374098
v -0.03105691 -0.00038082 0.05386077
v -0.02999306 -0.00044610 0.05475489
v -0.02937092 -0.00044610 0.05520409
v 0.01975274 -0.02061844 0.05352708
v 0.01880710 -0.02233755 0.05344152
v 0.01895641 -0.02260412 0.05284259
v 0.01801077 -0.02432323 0.05273564
v 0.02596785 -0.01057035 0.05224794
v 0.02661487 -0.00944967 0.05224794
v 0.01674161 -0.02654828 0.05224794
v 0.02296917 -0.01577664 0.01179013
v -0.03126843 -0.00139270 0.01179013
v -0.03027302 -0.00312269 0.01179013
v -0.03081427 -0.00217065 0.05224794
v -0.02790269 -0.00720829 0.05270997
v -0.02884833 -0.00548374 0.05282548
v -0.02869902 -0.00522261 0.05342441
v -0.02964466 -0.00350350 0.05351425
v -0.02162536 -0.01804522 0.05276558
v -0.02257100 -0.01632611 0.05286826
v 0.01449571 -0.02525895 0.05543083
v 0.01534181 -0.02438307 0.05542227
v 0.01802321 -0.01984049 0.05541371
v 0.02430676 -0.00901445 0.05540516
v 0.01394823 -0.02529159 0.05544366
v -0.01394823 -0.02474757 0.05549500
v 0.02869902 -0.00342190 0.05441264
v 0.02277009 -0.01304565 0.05473350
v 0.01992694 -0.01821930 0.05460944
v -0.02791513 -0.00273099 0.05540944
v -0.02523996 -0.00727358 0.05542227
v -0.01895019 -0.01809962 0.05542655
v -0.01481922 -0.02470949 0.05545222
v 0.01695314 -0.02384993 0.05436986
v 0.01842137 -0.02200026 0.05402334
v 0.01898129 -0.02173913 0.05366826
v 0.01802943 -0.02345824 0.05362976
v 0.01708379 -0.02517735 0.05358270
v -0.02981886 -0.00290508 0.05370248
v -0.02069838 -0.01889933 0.05359981
v -0.02431298 -0.01262131 0.05360837
v -0.02981886 -0.00110437 0.05460088
v -0.02924650 -0.00134373 0.05495596
v 0.01648654 -0.02657548 0.05318483
v 0.01629368 -0.02714127 0.05290676
v 0.01633723 -0.02721199 0.05224794
v 0.01674784 -0.02654828 0.01179013
v 0.01731398 -0.02556904 0.01179013
v -0.02662109 -0.00944967 0.01179013
v -0.02661487 -0.00944967 0.05224794
v -0.02596785 -0.01057035 0.05224794
v -0.01674161 -0.02654828 0.05224794
v -0.01801077 -0.02432323 0.05273564
v -0.01880710 -0.02233755 0.05344152
v -0.01975274 -0.02061844 0.05352708
v -0.01895641 -0.02260412 0.05284259
v 0.01484411 -0.02624907 0.05463510
v 0.01536670 -0.02617291 0.05455810
v 0.01509918 -0.02498150 0.05530676
v 0.01394823 -0.02573769 0.05513992
v 0.01552845 -0.02564521 0.05469928
v 0.01573998 -0.02474213 0.05495168
v 0.01649898 -0.02384993 0.05475917
v 0.02068594 -0.01528702 0.05539660
v 0.01755661 -0.02199482 0.05477200
v -0.01394823 -0.02529159 0.05544366
v -0.01449571 -0.02525895 0.05543083
v -0.02430676 -0.00901445 0.05540516
v -0.01802321 -0.01984049 0.05541371
v -0.01534181 -0.02438307 0.05542227
v 0.01598261 -0.02564521 0.05430997
v 0.01631234 -0.02629803 0.05369820
v 0.01755661 -0.02379553 0.05387361
v 0.01611326 -0.02689646 0.05350569
v -0.02869902 -0.00342190 0.05441264
v -0.01898129 -0.02173913 0.05366826
v -0.01842137 -0.02200026 0.05402334
v -0.01695314 -0.02384993 0.05436986
v -0.01708379 -0.02517735 0.05358270
v -0.01802943 -0.02345824 0.05362976
v -0.01992694 -0.01821930 0.05460944
v -0.02277009 -0.01304565 0.05473350
v 0.01578353 -0.02731535 0.05318483
v 0.01574620 -0.02759825 0.05224794
v 0.01574620 -0.02760369 0.01179013
v 0.01634345 -0.02721199 0.01179013
v -0.02300028 -0.01572224 0.01179013
v -0.01731398 -0.02556904 0.01179013
v -0.01674784 -0.02654828 0.01179013
v -0.01633723 -0.02721199 0.05224794
v -0.01629368 -0.02714127 0.05290676
v -0.01648654 -0.02657548 0.05318483
v 0.01394823 -0.02628715 0.05468644
v 0.01484411 -0.02670061 0.05423724
v 0.01550979 -0.02712495 0.05372387
v -0.01394823 -0.02573769 0.05513992
v -0.01509918 -0.02498150 0.05530676
v -0.01536670 -0.02617291 0.05455810
v -0.01484411 -0.02624907 0.05463510
v -0.01755661 -0.02199482 0.05477200
v -0.01649898 -0.02384993 0.05475917
v -0.02068594 -0.01528702 0.05539660
v -0.01552845 -0.02564521 0.05469928
v -0.01573998 -0.02474213 0.05495168
v -0.01631234 -0.02629803 0.05369820
v -0.01755661 -0.02379553 0.05387361
v -0.01598261 -0.02564521 0.05430997
v -0.01611326 -0.02689646 0.05350569
v 0.01484411 -0.02757649 0.05314633
v 0.01484411 -0.02777233 0.05224794
v 0.01488766 -0.02777777 0.01179013
v -0.01634345 -0.02721199 0.01179013
v -0.01574620 -0.02760369 0.01179013
v -0.01574620 -0.02759825 0.05224794
v -0.01578353 -0.02731535 0.05318483
v 0.01394823 -0.02673869 0.05423724
v 0.01484411 -0.02718479 0.05378804
v -0.01394823 -0.02628715 0.05468644
v -0.01550979 -0.02712495 0.05372387
v -0.01484411 -0.02670061 0.05423724
v -0.01484411 -0.02757649 0.05314633
v 0.01398556 -0.02778865 0.01179013
v 0.01484411 -0.02778321 0.01179013
v -0.01484411 -0.02777233 0.05224794
v -0.01570887 -0.02761456 0.01179013
v -0.01484411 -0.02778321 0.01179013
v -0.01394823 -0.02673869 0.05423724
v -0.01484411 -0.02718479 0.05378804
v -0.01394823 -0.02778865 0.01179013
f 1 2 3
f 1 3 8
f 1 8 16
f 1 16 32
f 1 32 53
f 1 53 52
f 1 52 55
f 1 55 88
f 1 88 131
f 1 131 130
f 1 130 129
f 1 129 128
f 1 128 164
f 1 164 191
f 1 191 223
f 1 223 225
f 1 225 260
f 1 260 297
f 1 297 296
f 1 296 335
f 1 335 334
f 1 334 360
f 1 360 372
f 1 372 371
f 1 371 378
f 1 378 375
f 1 375 374
f 1 374 362
f 1 362 361
f 1 361 338
f 1 338 337
f 1 337 336
f 1 336 298
f 1 298 262
f 1 262 261
f 1 261 226
f 1 226 192
f 1 192 167
f 1 167 166
f 1 166 165
f 1 165 132
f 1 132 91
f 1 91 90
f 1 90 89
f 1 89 56
f 1 56 33
f 1 33 17
f 1 17 9
f 1 9 4
f 1 4 7
f 1 7 2
f 2 5 6
f 2 6 3
f 2 7 13
f 2 13 5
f 3 6 8
f 4 9 7
f 5 10 11
f 5 11 12
f 5 12 6
f 5 13 22
f 5 22 10
f 6 12 14
f 6 14 15
f 6 15 16
f 6 16 8
f 7 9 17
f 7 17 18
f 7 18 13
f 10 19 20
f 10 20 21
f 10 21 11
f 10 22 36
f 10 36 19
f 11 21 23
f 11 23 24
f 11 24 25
f 11 25 12
f 12 25 14
f 13 18 26
f 13 26 27
f 13 27 22
f 14 25 28
f 14 28 29
f 14 29 30
f 14 30 31
f 14 31 15
f 15 32 16
f 15 31 53
f 15 53 32
f 17 33 18
f 18 33 34
f 18 34 35
f 18 35 26
f 19 36 38
f 19 38 20
f 20 37 23
f 20 23 21
f 20 38 62
f 20 62 37
f 22 27 39
f 22 39 38
f 22 38 36
f 23 37 40
f 23 40 24
f 24 40 41
f 24 41 42
f 24 42 43
f 24 43 25
f 25 43 44
f 25 44 28
f 26 35 45
f 26 45 27
f 27 46 47
f 27 47 39
f 27 45 46
f 28 44 48
f 28 48 29
f 29 48 49
f 29 49 50
f 29 50 30
f 30 50 51
f 30 51 31
f 31 52 53
f 31 51 54
f 31 54 55
f 31 55 52
f 33 56 34
f 34 56 89
f 34 89 57
f 34 57 35
f 35 57 58
f 35 58 59
f 35 59 60
f 35 60 45
f 37 61 40
f 37 62 97
f 37 97 61
f 38 39 47
f 38 47 62
f 40 63 64
f 40 64 41
f 40 61 65
f 40 65 63
f 41 64 42
f 42 64 66
f 42 66 67
f 42 67 68
f 42 68 70
f 42 70 69
f 42 69 43
f 43 69 70
f 43 70 71
f 43 71 72
f 43 72 74
f 43 74 73
f 43 73 44
f 44 73 74
f 44 74 75
f 44 75 48
f 45 60 76
f 45 76 77
f 45 77 46
f 46 78 79
f 46 79 80
f 46 80 47
f 46 77 78
f 47 80 62
f 48 75 81
f 48 81 82
f 48 82 49
f 49 82 83
f 49 83 84
f 49 84 50
f 50 84 51
f 51 84 85
f 51 85 86
f 51 86 87
f 51 87 54
f 54 87 55
f 55 87 88
f 57 89 90
f 57 90 91
f 57 91 92
f 57 92 93
f 57 93 58
f 58 93 94
f 58 94 59
f 59 95 60
f 59 94 96
f 59 96 95
f 60 95 76
f 61 97 102
f 61 102 65
f 62 80 97
f 63 65 98
f 63 98 99
f 63 99 141
f 63 141 100
f 63 100 64
f 64 100 103
f 64 103 67
f 64 67 66
f 65 101 98
f 65 102 144
f 65 144 178
f 65 178 208
f 65 208 207
f 65 207 239
f 65 239 238
f 65 238 244
f 65 244 243
f 65 243 275
f 65 275 234
f 65 234 201
f 65 201 200
f 65 200 199
f 65 199 195
f 65 195 172
f 65 172 171
f 65 171 142
f 65 142 101
f 67 103 145
f 67 145 104
f 67 104 105
f 67 105 68
f 68 105 104
f 68 104 106
f 68 106 70
f 70 107 71
f 70 106 108
f 70 108 109
f 70 109 110
f 70 110 107
f 71 107 72
f 72 107 110
f 72 110 74
f 74 110 111
f 74 111 112
f 74 112 81
f 74 81 75
f 76 95 113
f 76 113 114
f 76 114 115
f 76 115 77
f 77 116 78
f 77 115 114
f 77 114 117
f 77 117 118
f 77 118 119
f 77 119 116
f 78 120 121
f 78 121 79
f 78 116 119
f 78 119 122
f 78 122 123
f 78 123 120
f 79 121 80
f 80 121 124
f 80 124 102
f 80 102 97
f 81 112 84
f 81 84 82
f 82 84 83
f 84 112 125
f 84 125 126
f 84 126 127
f 84 127 85
f 85 127 128
f 85 128 129
f 85 129 130
f 85 130 131
f 85 131 86
f 86 131 87
f 87 131 88
f 91 132 133
f 91 133 92
f 92 133 93
f 93 133 134
f 93 134 135
f 93 135 136
f 93 136 94
f 94 136 96
f 95 96 137
f 95 137 138
f 95 138 113
f 96 136 139
f 96 139 137
f 98 101 140
f 98 140 99
f 99 140 141
f 100 141 103
f 101 142 140
f 102 124 143
f 102 143 144
f 103 141 145
f 104 145 146
f 104 146 147
f 104 147 106
f 106 147 108
f 108 147 146
f 108 146 109
f 109 146 110
f 110 146 148
f 110 148 112
f 110 112 111
f 112 148 149
f 112 149 125
f 113 138 150
f 113 150 114
f 114 150 151
f 114 151 152
f 114 152 117
f 117 153 118
f 117 152 153
f 118 153 119
f 119 154 122
f 119 153 152
f 119 152 155
f 119 155 156
f 119 156 154
f 120 123 121
f 121 123 160
f 121 160 157
f 121 157 124
f 122 154 158
f 122 158 159
f 122 159 123
f 123 159 158
f 123 158 187
f 123 187 160
f 124 157 186
f 124 186 161
f 124 161 143
f 125 149 126
f 126 162 163
f 126 163 127
f 126 149 181
f 126 181 162
f 127 163 164
f 127 164 128
f 132 165 135
f 132 135 134
f 132 134 133
f 135 165 166
f 135 166 167
f 135 167 168
f 135 168 136
f 136 168 169
f 136 169 170
f 136 170 150
f 136 150 138
f 136 138 137
f 136 137 139
f 140 171 172
f 140 172 195
f 140 195 173
f 140 173 198
f 140 198 174
f 140 174 141
f 140 142 171
f 141 174 175
f 141 175 176
f 141 176 145
f 143 161 177
f 143 177 144
f 144 177 178
f 145 176 179
f 145 179 146
f 146 179 176
f 146 176 180
f 146 180 148
f 148 180 149
f 149 180 176
f 149 176 204
f 149 204 181
f 150 170 182
f 150 182 183
f 150 183 152
f 150 152 151
f 152 183 184
f 152 184 155
f 154 156 185
f 154 185 158
f 155 184 156
f 156 184 185
f 157 160 186
f 158 185 184
f 158 184 187
f 160 187 186
f 161 186 177
f 162 181 188
f 162 188 189
f 162 189 163
f 163 189 190
f 163 190 164
f 164 190 191
f 167 192 193
f 167 193 168
f 168 193 194
f 168 194 169
f 169 194 213
f 169 213 182
f 169 182 170
f 173 196 197
f 173 197 198
f 173 195 199
f 173 199 200
f 173 200 201
f 173 201 202
f 173 202 196
f 174 198 203
f 174 203 175
f 175 203 204
f 175 204 176
f 177 186 205
f 177 205 237
f 177 237 206
f 177 206 239
f 177 239 207
f 177 207 208
f 177 208 178
f 181 209 210
f 181 210 211
f 181 211 188
f 181 204 209
f 182 212 183
f 182 213 251
f 182 251 214
f 182 214 212
f 183 212 184
f 184 212 214
f 184 214 215
f 184 215 187
f 186 187 214
f 186 214 216
f 186 216 205
f 187 215 214
f 188 211 189
f 189 211 217
f 189 217 218
f 189 218 219
f 189 219 220
f 189 220 221
f 189 221 222
f 189 222 190
f 190 223 191
f 190 222 224
f 190 224 225
f 190 225 223
f 192 226 227
f 192 227 193
f 193 227 228
f 193 228 194
f 194 228 229
f 194 229 213
f 196 202 230
f 196 230 233
f 196 233 197
f 197 231 232
f 197 232 204
f 197 204 203
f 197 203 198
f 197 233 231
f 201 234 202
f 202 234 230
f 204 232 235
f 204 235 236
f 204 236 209
f 205 216 252
f 205 252 237
f 206 238 239
f 206 237 240
f 206 240 241
f 206 241 242
f 206 242 243
f 206 243 244
f 206 244 238
f 209 236 210
f 210 236 245
f 210 245 211
f 211 245 246
f 211 246 247
f 211 247 253
f 211 253 217
f 213 229 248
f 213 248 249
f 213 249 250
f 213 250 251
f 214 251 252
f 214 252 216
f 217 253 254
f 217 254 218
f 218 220 219
f 218 254 220
f 220 254 255
f 220 255 221
f 221 255 256
f 221 256 222
f 222 257 258
f 222 258 224
f 222 256 259
f 222 259 257
f 224 258 225
f 225 258 260
f 226 261 227
f 227 261 262
f 227 262 263
f 227 263 264
f 227 264 228
f 228 265 266
f 228 266 267
f 228 267 248
f 228 248 229
f 228 264 268
f 228 268 269
f 228 269 265
f 230 234 270
f 230 270 271
f 230 271 233
f 231 233 271
f 231 271 272
f 231 272 273
f 231 273 232
f 232 236 235
f 232 273 236
f 234 274 270
f 234 275 315
f 234 315 274
f 236 276 245
f 236 273 277
f 236 277 278
f 236 278 276
f 237 252 240
f 240 252 251
f 240 251 279
f 240 279 280
f 240 280 281
f 240 281 282
f 240 282 241
f 241 282 242
f 242 282 275
f 242 275 243
f 245 247 246
f 245 276 283
f 245 283 284
f 245 284 285
f 245 285 247
f 247 285 321
f 247 321 286
f 247 286 287
f 247 287 253
f 248 288 249
f 248 267 304
f 248 304 289
f 248 289 290
f 248 290 288
f 249 288 291
f 249 291 250
f 250 291 251
f 251 291 292
f 251 292 279
f 253 287 254
f 254 287 293
f 254 293 255
f 255 293 294
f 255 294 256
f 256 294 259
f 257 260 258
f 257 259 260
f 259 294 295
f 259 295 335
f 259 335 296
f 259 296 297
f 259 297 260
f 262 298 299
f 262 299 263
f 263 299 264
f 264 299 300
f 264 300 301
f 264 301 302
f 264 302 268
f 265 269 266
f 266 269 303
f 266 303 267
f 267 303 304
f 268 302 305
f 268 305 269
f 269 305 303
f 270 306 307
f 270 307 308
f 270 308 271
f 270 274 309
f 270 309 306
f 271 308 310
f 271 310 311
f 271 311 272
f 272 311 310
f 272 310 312
f 272 312 313
f 272 313 273
f 273 313 312
f 273 312 314
f 273 314 277
f 274 315 345
f 274 345 309
f 275 282 316
f 275 316 315
f 276 278 283
f 277 314 278
f 278 314 283
f 279 292 291
f 279 291 317
f 279 317 318
f 279 318 280
f 280 318 319
f 280 319 281
f 281 319 282
f 282 319 316
f 283 314 312
f 283 312 310
f 283 310 320
f 283 320 321
f 283 321 322
f 283 322 284
f 284 322 285
f 285 322 321
f 286 321 287
f 287 321 323
f 287 323 293
f 288 324 291
f 288 290 289
f 288 289 325
f 288 325 326
f 288 326 327
f 288 327 324
f 289 304 328
f 289 328 329
f 289 329 354
f 289 354 325
f 291 324 330
f 291 330 331
f 291 331 317
f 293 323 294
f 294 323 332
f 294 332 333
f 294 333 295
f 295 333 334
f 295 334 335
f 298 336 299
f 299 336 300
f 300 336 301
f 301 337 338
f 301 338 361
f 301 361 339
f 301 339 340
f 301 340 302
f 301 336 337
f 302 340 305
f 303 305 341
f 303 341 328
f 303 328 304
f 305 340 341
f 306 309 342
f 306 342 343
f 306 343 344
f 306 344 307
f 307 310 308
f 307 344 323
f 307 323 321
f 307 321 310
f 309 345 367
f 309 367 342
f 310 321 320
f 315 316 345
f 316 319 346
f 316 346 347
f 316 347 348
f 316 348 345
f 317 331 349
f 317 349 350
f 317 350 351
f 317 351 318
f 318 350 352
f 318 352 353
f 318 353 319
f 318 351 350
f 319 353 352
f 319 352 346
f 323 344 332
f 324 327 330
f 325 354 355
f 325 355 326
f 326 355 327
f 327 355 354
f 327 354 356
f 327 356 352
f 327 352 350
f 327 350 349
f 327 349 330
f 328 341 357
f 328 357 354
f 328 354 329
f 330 349 331
f 332 344 358
f 332 358 333
f 333 358 359
f 333 359 360
f 333 360 334
f 339 361 362
f 339 362 363
f 339 363 340
f 340 363 364
f 340 364 357
f 340 357 341
f 342 365 366
f 342 366 343
f 342 367 376
f 342 376 365
f 343 366 344
f 344 366 358
f 345 348 367
f 346 352 347
f 347 368 348
f 347 352 354
f 347 354 357
f 347 357 368
f 348 369 367
f 348 368 369
f 352 356 354
f 357 364 368
f 358 366 377
f 358 377 370
f 358 370 373
f 358 373 359
f 359 371 372
f 359 372 360
f 359 373 378
f 359 378 371
f 362 374 363
f 363 374 375
f 363 375 373
f 363 373 370
f 363 370 364
f 364 370 368
f 365 376 377
f 365 377 366
f 367 369 377
f 367 377 376
f 368 370 377
f 368 377 369
f 373 375 378